Coordinates
version=1
nRows=22
nColumns=24
inDegrees=yes

Units are S.I. units (second, meters, Newtons, ...)
Angles are in degrees.

endheader
time	pelvis_tilt	pelvis_list	pelvis_rotation	pelvis_tx	pelvis_ty	pelvis_tz	hip_flexion_r	hip_adduction_r	hip_rotation_r	knee_angle_r	ankle_angle_r	subtalar_angle_r	mtp_angle_r	hip_flexion_l	hip_adduction_l	hip_rotation_l	knee_angle_l	ankle_angle_l	subtalar_angle_l	mtp_angle_l	lumbar_extension	lumbar_bending	lumbar_rotation
      3.84000000	     -3.40389703	      0.87439739	      3.02795879	     -1.83410529	     -0.02447606	     -0.29575980	     26.07329190	     -0.03458574	    -10.86566999	     -7.51698072	     -4.03113407	      3.93067292	     23.42159495	    -14.99830433	      2.20101822	     -5.74479555	    -14.92099427	     13.42585795	     11.38814057	    -11.94109818	     -3.01561719	     -0.19935347	     -7.90686975
      3.84500000	     -3.38606591	      0.63026945	      3.10766402	     -1.82604361	     -0.02512548	     -0.29539451	     26.11487200	      0.33372558	     -9.92081871	     -8.61528445	     -3.89199889	      2.52637623	     19.13885437	    -14.97913594	      1.68904422	     -6.17909581	    -15.79156091	     12.18249971	     12.08580945	     -7.96161777	     -2.85583278	      0.10162840	     -7.87012770
      3.85000000	     -3.50028322	      0.43270212	      3.08295572	     -1.81791532	     -0.02591391	     -0.29489921	     26.25872277	      0.68929271	     -9.06268768	     -9.41658774	     -4.90957245	      0.83841113	     18.91613120	    -14.77498278	      1.24924014	     -6.62483554	    -16.82447379	     11.49927438	     12.85342920	     -7.01689534	     -2.55102594	      0.33973110	     -7.71165581
      3.85500000	     -3.46853959	      0.13221716	      3.12365147	     -1.80978653	     -0.02636130	     -0.29433335	     26.18300785	      1.15173147	     -8.30454471	    -10.16388561	     -5.51891951	     -0.56241654	     16.56091883	    -14.71821400	      0.61441791	     -7.48832399	    -17.56638851	      8.85384222	     13.49946343	      2.66164690	     -2.40095849	      0.68477902	     -7.67609729
      3.86000000	     -3.60335140	     -0.15287825	      2.99416846	     -1.80161529	     -0.02689533	     -0.29360416	     26.27583878	      1.65201653	     -7.53220245	    -10.73679762	     -6.78699202	     -2.07414767	     16.37175781	    -14.40051419	      0.05050819	     -8.15751910	    -18.73464973	      7.95897488	     14.36028714	      3.48729198	     -2.07414706	      1.00900289	     -7.37759463
      3.86500000	     -3.57716822	     -0.56922938	      2.95920933	     -1.79344161	     -0.02706771	     -0.29286278	     26.11928719	      2.26545307	     -6.86930766	    -11.17835643	     -7.93170156	     -3.53182461	     15.54084743	    -14.24475015	     -0.73840016	     -9.10523824	    -19.63640224	      5.51155020	     14.95918991	     10.97792289	     -1.91652028	      1.46464747	     -7.24829663
      3.87000000	     -3.63182865	     -0.98043999	      2.80098950	     -1.78529946	     -0.02718796	     -0.29190275	     26.05016935	      2.92592402	     -6.10388820	    -11.57993258	     -9.11092947	     -4.96673229	     14.88124039	    -13.93273658	     -1.52111294	    -10.08259515	    -20.77067719	      3.64670982	     15.71765356	     15.03273477	     -1.68555365	      1.90476150	     -6.96547128
      3.87500000	     -3.66494759	     -1.42137885	      2.61210568	     -1.77718532	     -0.02713394	     -0.29085980	     25.93838302	      3.63471228	     -5.29147007	    -11.94816113	    -10.21471023	     -6.40190950	     14.11439419	    -13.60494712	     -2.36023981	    -11.10784022	    -21.93995238	      1.59743417	     16.40308161	     19.11176450	     -1.48819530	      2.37303679	     -6.64595744
      3.88000000	     -3.70058173	     -1.87223061	      2.39123916	     -1.76907852	     -0.02694578	     -0.28971781	     25.82277212	      4.37295503	     -4.44397243	    -12.33253409	    -11.13666040	     -7.80358406	     13.08852228	    -13.24220346	     -3.23025685	    -12.11647721	    -23.13581009	     -0.64386317	     17.00281741	     23.08432600	     -1.29726748	      2.84522245	     -6.30192677
      3.88500000	     -3.73486683	     -2.31742480	      2.17024637	     -1.76103730	     -0.02664791	     -0.28852547	     25.71558132	      5.11222570	     -3.61455236	    -12.77246159	    -11.83854576	     -9.19318327	     11.67533757	    -12.83438172	     -4.11589063	    -13.05530564	    -24.37462878	     -3.03516217	     17.48749682	     26.82750843	     -1.12377629	      3.30488236	     -5.91096542
      3.89000000	     -3.79426328	     -2.76301294	      1.97139403	     -1.75298624	     -0.02629507	     -0.28735297	     25.63737325	      5.84641761	     -2.76862402	    -13.28301095	    -12.21289549	    -10.50958084	      9.74638371	    -12.35832445	     -5.01607650	    -13.88199987	    -25.63767912	     -5.60333149	     17.79286086	     30.39182956	     -0.92518052	      3.76164378	     -5.63760293
      3.89500000	     -3.83610296	     -3.17050524	      1.80687635	     -1.74502984	     -0.02588509	     -0.28622928	     25.56759654	      6.53086246	     -1.97549713	    -13.90163037	    -12.22924277	    -11.70940698	      7.33409333	    -11.85520169	     -5.87588955	    -14.49765467	    -26.92244063	     -8.27470749	     17.93413047	     33.53485498	     -0.76116941	      4.17818109	     -5.35644517
      3.90000000	     -3.88643160	     -3.53115224	      1.64473040	     -1.73713753	     -0.02547407	     -0.28511847	     25.52644399	      7.17346571	     -1.19322181	    -14.61086404	    -11.92597283	    -12.80417804	      4.50413145	    -11.30193666	     -6.67825229	    -14.97953740	    -28.22992466	    -11.03189205	     17.89714962	     36.16860778	     -0.60092566	      4.54406661	     -5.08057684
      3.90500000	     -3.96396906	     -3.85942436	      1.51159262	     -1.72929720	     -0.02511571	     -0.28407776	     25.53083357	      7.77236795	     -0.46598727	    -15.39643027	    -11.32084576	    -13.75272889	      1.37137944	    -10.66854523	     -7.43714114	    -15.29552235	    -29.57915910	    -13.78135066	     17.71205070	     38.20365192	     -0.41961037	      4.87535942	     -4.83691255
      3.91000000	     -4.06748203	     -4.15083578	      1.43677103	     -1.72153573	     -0.02481111	     -0.28314710	     25.57180707	      8.30889071	      0.19194060	    -16.22863442	    -10.48378418	    -14.55944472	     -1.90976954	     -9.93927772	     -8.14665525	    -15.42630202	    -30.98875340	    -16.46258579	     17.35729884	     39.49933497	     -0.21510555	      5.16754504	     -4.64540920
      3.91500000	     -4.32111156	     -4.41263699	      1.38320453	     -1.71377492	     -0.02473171	     -0.28237219	     25.76116052	      8.78018552	      0.75476427	    -17.01187629	     -9.96967836	    -15.44256309	     -3.60197646	     -8.96743736	     -8.80174849	    -15.40693816	    -32.53630023	    -18.86546317	     16.88948427	     39.61043437	      0.15501952	      5.43953286	     -4.46897273
      3.92000000	     -4.30191126	     -4.62337724	      1.43487200	     -1.70628478	     -0.02435134	     -0.28172665	     25.66160615	      9.17876901	      1.25289847	    -17.88432876	     -8.47087879	    -15.73292761	     -7.74201920	     -8.24215864	     -9.38915577	    -15.24603163	    -34.01797105	    -21.36615623	     16.13384433	     39.69909140	      0.20151880	      5.64872561	     -4.40810909
      3.92500000	     -4.28655409	     -4.86194640	      1.52650767	     -1.69878367	     -0.02408004	     -0.28135297	     25.49703504	      9.53408223	      1.51462501	    -18.52206059	     -8.04582335	    -16.34814812	     -7.84391356	     -7.45342979	     -9.98542223	    -15.05397957	    -35.58928915	    -23.56876495	     15.15844395	     39.14411754	      0.26364605	      5.91167381	     -4.36847218
      3.93000000	     -4.70938149	     -5.01907652	      1.55456413	     -1.69138877	     -0.02426037	     -0.28085712	     25.83859692	      9.81566555	      1.86184894	    -19.27341648	     -7.05611498	    -16.56731119	     -9.48617564	     -6.07399457	    -10.46043830	    -14.73485225	    -37.39042675	    -25.23434498	     14.16897417	     37.11582730	      0.78165696	      6.07363430	     -4.25234690
      3.93500000	     -4.77043062	     -5.21970230	      1.68884859	     -1.68414761	     -0.02403541	     -0.28056572	     25.70702962	     10.09224755	      2.03033615	    -19.85247634	     -6.01452618	    -16.64745268	    -11.01574715	     -5.04967591	    -10.97763024	    -14.40028189	    -39.16432448	    -26.64202885	     12.98455674	     34.49861106	      0.90056619	      6.28103262	     -4.28686335
      3.94000000	     -4.89865292	     -5.46916273	      1.77917478	     -1.67695659	     -0.02390015	     -0.28026711	     25.59946861	     10.40265368	      2.08209270	    -20.31185645	     -5.11440658	    -16.61838814	    -11.87649391	     -3.92314140	    -11.53824614	    -14.13346953	    -40.97496563	    -27.71188523	     11.67706476	     31.81937820	      1.08745855	      6.54286411	     -4.23111092
      3.94500000	     -4.92831729	     -5.75730844	      1.86407537	     -1.66986506	     -0.02362046	     -0.28001258	     25.30514025	     10.74065981	      2.11082617	    -20.60364221	     -4.29407125	    -16.52168508	    -12.44917782	     -2.87538305	    -12.12148537	    -13.87463100	    -42.82195653	    -28.20896569	     10.32864338	     28.25643231	      1.15614812	      6.85042387	     -4.17009810
